<svg version="1.1" id="Layer_1" xmlns="http://www.w3.org/2000/svg" xmlns:xlink="http://www.w3.org/1999/xlink" x="0px" y="0px"
	 width="100%" viewBox="0 0 1200 1200" enable-background="new 0 0 1200 1200" xml:space="preserve">
<path fill="#F3C15A" opacity="1.000000" stroke="none" 
	d="
M877.000000,1.000005 
	C984.932922,1.000000 1092.865845,1.000000 1201.000000,1.000000 
	C1201.000000,125.688606 1201.000000,250.377319 1200.642090,375.583740 
	C1193.289185,379.186157 1186.294556,382.271362 1179.299438,385.355469 
	C1156.332642,395.481262 1133.386841,405.655243 1110.393311,415.719757 
	C1082.378296,427.982117 1054.281006,440.056915 1026.297485,452.390472 
	C1000.740967,463.654388 975.305542,475.192871 949.776917,486.520660 
	C944.483704,488.869446 939.015381,490.823578 933.761841,492.625824 
	C934.342590,491.595032 934.742432,490.862305 935.242798,490.206177 
	C947.939880,473.558563 960.678772,456.942780 973.346252,440.272644 
	C993.453125,413.812469 1013.516785,387.319519 1033.590332,360.833954 
	C1037.907349,355.138062 1042.343750,349.523956 1046.447632,343.677338 
	C1051.939941,335.852905 1048.423706,328.313049 1038.935547,327.176910 
	C1037.125610,326.960144 1035.303589,326.844971 1033.551758,326.333374 
	C1034.318115,324.862946 1034.945679,323.686859 1035.732788,322.629486 
	C1047.260864,307.142487 1058.871704,291.716644 1070.317993,276.169434 
	C1073.817139,271.416412 1073.684692,266.952728 1070.520020,262.293060 
	C1067.435425,257.751526 1063.023926,257.187805 1058.114136,258.278412 
	C1031.807373,264.122009 1005.477905,269.866638 979.203369,275.851898 
	C933.297607,286.308990 887.417053,296.877808 841.554871,307.524200 
	C837.254395,308.522491 834.193787,308.064606 830.983276,304.566254 
	C817.288940,289.644562 800.604858,279.120361 781.196899,273.415344 
	C771.673401,270.615906 761.749817,269.177155 752.040588,266.755005 
	C758.581421,252.537399 765.046448,238.667282 771.606201,224.842102 
	C782.156677,202.606064 792.812439,180.419952 803.343933,158.174988 
	C813.522766,136.675049 823.551025,115.103775 833.736938,93.607201 
	C844.418213,71.065056 855.273010,48.604984 865.916687,26.045238 
	C869.810974,17.791105 873.316956,9.353782 877.000000,1.000005 
z"/>
<path fill="#E74E92" opacity="1.000000" stroke="none" 
	d="
M1.000000,376.000000 
	C1.000000,251.077454 1.000000,126.154915 1.000000,1.000000 
	C109.355232,1.000000 217.710632,1.000000 326.573364,1.359311 
	C330.372650,8.429505 333.654266,15.145492 336.958435,21.850349 
	C348.511353,45.293327 360.070801,68.733109 371.630188,92.172905 
	C384.803497,118.885368 397.951385,145.610458 411.164490,172.303238 
	C419.436737,189.014496 427.931702,205.616653 436.075348,222.389816 
	C439.306091,229.044037 441.856720,236.028458 444.344696,242.748047 
	C443.186005,242.361237 442.376862,242.140976 441.616394,241.809174 
	C398.595154,223.037796 355.568939,204.277634 312.564301,185.468246 
	C292.739716,176.797379 272.937836,168.073746 253.170242,159.273926 
	C247.889755,156.923233 243.534195,158.030579 239.483871,161.851593 
	C235.513062,165.597626 234.426956,169.821701 236.562775,174.947556 
	C238.354248,179.246994 239.883636,183.655396 241.541107,188.010986 
	C248.106125,205.263016 254.675858,222.513275 260.888458,239.697311 
	C248.892624,234.688095 237.203445,229.855911 225.640457,224.738541 
	C222.012009,223.132721 218.608887,222.027756 215.531937,225.177780 
	C212.280060,228.506882 211.270233,232.201950 213.353348,236.970001 
	C228.740585,272.189880 243.913696,307.503265 258.762970,342.935059 
	C223.278748,349.534698 200.477570,376.777924 200.289474,412.473877 
	C200.241302,421.615143 200.178452,430.756378 199.776947,439.977173 
	C194.352203,444.406433 189.272888,448.756134 183.871353,452.929291 
	C167.510620,445.847931 151.499557,438.878418 135.427704,432.052063 
	C104.199005,418.787903 72.964684,405.536102 41.674122,392.418915 
	C28.191191,386.766754 14.562489,381.462372 1.000000,376.000000 
z"/>
<path fill="#4591BD" opacity="1.000000" stroke="none" 
	d="
M343.000000,1201.000000 
	C229.070633,1201.000000 115.141266,1201.000000 1.000000,1201.000000 
	C1.000000,1081.644775 1.000000,962.289368 1.393457,842.499512 
	C3.069010,841.761108 4.433384,841.644470 5.620158,841.123413 
	C14.910787,837.043945 24.190331,832.937622 33.430164,828.744446 
	C63.579243,815.062378 93.691338,801.298645 123.861931,787.664246 
	C130.809525,784.524597 137.933762,781.775818 145.008850,779.286560 
	C145.720978,783.815308 146.014282,788.014893 147.143677,791.976074 
	C154.540390,817.918701 169.390442,837.105103 196.276794,844.969727 
	C199.247986,845.838867 200.161789,847.199890 200.184647,850.192932 
	C200.324463,868.495239 200.742981,886.795288 200.884750,905.097534 
	C201.021500,922.754089 200.875992,940.412720 200.996033,958.069458 
	C201.021851,961.867981 201.365631,965.715515 202.052719,969.450378 
	C207.590881,999.555664 235.037964,1023.841736 270.166321,1017.235718 
	C280.926941,1015.212219 291.731934,1013.328735 302.586914,1011.924988 
	C319.797852,1009.699341 334.704102,1003.616272 344.898834,988.735046 
	C346.619019,986.224182 348.241425,987.079651 350.242157,988.704163 
	C361.900299,998.169739 375.116180,1001.292053 389.917145,998.561951 
	C404.596771,995.854187 419.349304,993.541809 434.012726,991.418213 
	C427.528259,1006.741394 421.208435,1021.749756 414.648193,1036.652222 
	C404.938782,1058.708862 395.018127,1080.672241 385.260925,1102.707886 
	C371.669434,1133.402954 358.129181,1164.120850 344.633759,1194.858154 
	C343.792145,1196.775024 343.531128,1198.946777 343.000000,1201.000000 
z"/>
<path fill="#EB3C5F" opacity="1.000000" stroke="none" 
	d="
M1201.000000,836.000000 
	C1201.000000,957.590759 1201.000000,1079.181519 1201.000000,1201.000000 
	C1090.978149,1201.000000 980.956055,1201.000000 870.421814,1200.638672 
	C847.696533,1152.341553 825.447510,1104.422241 803.292664,1056.459473 
	C796.888489,1042.595215 790.754517,1028.605957 784.923706,1014.730835 
	C787.207947,1015.499084 789.120422,1016.093445 790.914185,1016.939392 
	C837.898621,1039.095703 884.847961,1061.326660 931.909668,1083.317383 
	C934.358276,1084.461548 938.349670,1084.664185 940.555115,1083.416992 
	C943.883240,1081.535034 943.770996,1077.473389 942.460632,1073.949463 
	C941.127808,1070.364990 939.624878,1066.840576 938.108826,1063.327759 
	C929.736389,1043.927979 921.337036,1024.540039 913.307678,1005.068115 
	C915.195923,1005.636963 916.739380,1006.250854 918.248474,1006.939819 
	C931.707275,1013.084167 945.170471,1019.219238 958.607788,1025.410400 
	C962.209106,1027.069702 965.697266,1028.115356 969.531677,1025.963135 
	C975.329773,1022.708801 977.489929,1017.755676 974.970520,1011.240234 
	C968.616211,994.807312 962.001282,978.474976 955.464661,962.112793 
	C949.304077,946.692139 943.110046,931.284851 937.305908,915.819641 
	C964.004700,907.070618 981.906799,889.703613 991.232117,863.588562 
	C995.272217,852.274658 996.319458,840.677979 994.101196,828.542358 
	C1010.755493,815.038757 1021.748413,798.332275 1026.311646,777.575806 
	C1027.163940,773.698853 1027.815063,769.777527 1028.918579,766.013184 
	C1050.006104,774.761597 1070.726318,783.392212 1091.463989,791.980896 
	C1121.418335,804.386658 1151.359985,816.824097 1181.367188,829.100769 
	C1187.779053,831.724060 1194.448975,833.716797 1201.000000,836.000000 
z"/>
<path fill="#EE8255" opacity="1.000000" stroke="none" 
	d="
M444.716980,242.862549 
	C441.856720,236.028458 439.306091,229.044037 436.075348,222.389816 
	C427.931702,205.616653 419.436737,189.014496 411.164490,172.303238 
	C397.951385,145.610458 384.803497,118.885368 371.630188,92.172905 
	C360.070801,68.733109 348.511353,45.293327 336.958435,21.850349 
	C333.654266,15.145492 330.372650,8.429505 327.040344,1.359311 
	C510.020905,1.000000 693.041809,1.000000 876.531372,1.000005 
	C873.316956,9.353782 869.810974,17.791105 865.916687,26.045238 
	C855.273010,48.604984 844.418213,71.065056 833.736938,93.607201 
	C823.551025,115.103775 813.522766,136.675049 803.343933,158.174988 
	C792.812439,180.419952 782.156677,202.606064 771.606201,224.842102 
	C765.046448,238.667282 758.581421,252.537399 751.573914,266.807434 
	C735.997192,268.170410 720.920410,269.113281 705.746338,269.644806 
	C699.893066,220.463531 694.137085,171.693619 688.381104,122.923714 
	C687.865417,122.790443 687.349792,122.657166 686.834167,122.523895 
	C655.800842,182.496063 624.767578,242.468231 593.342163,302.436584 
	C583.892517,300.320129 574.831848,298.220581 565.781372,296.078278 
	C564.658813,295.812531 563.560242,295.387451 562.500854,294.921661 
	C538.279480,284.272308 514.056030,273.627716 489.852905,262.937012 
	C474.790649,256.283905 459.761169,249.556564 444.716980,242.862549 
z"/>
<path fill="#7253A0" opacity="1.000000" stroke="none" 
	d="
M784.496704,1014.674011 
	C790.754517,1028.605957 796.888489,1042.595215 803.292664,1056.459473 
	C825.447510,1104.422241 847.696533,1152.341553 869.954834,1200.638672 
	C694.645752,1201.000000 519.291565,1201.000000 343.468689,1201.000000 
	C343.531128,1198.946777 343.792145,1196.775024 344.633759,1194.858154 
	C358.129181,1164.120850 371.669434,1133.402954 385.260925,1102.707886 
	C395.018127,1080.672241 404.938782,1058.708862 414.648193,1036.652222 
	C421.208435,1021.749756 427.528259,1006.741394 434.285950,991.366699 
	C435.083466,990.677551 435.550598,990.401978 436.450104,990.104492 
	C450.208679,989.634033 461.542084,984.359680 470.263397,974.558228 
	C473.698608,970.697571 475.584961,971.168091 479.107788,973.611572 
	C487.632935,979.524597 497.378693,981.952942 507.535889,980.663330 
	C519.856750,979.099121 532.043823,976.488159 544.293884,974.359253 
	C562.426270,971.208130 580.565918,968.099182 598.696777,964.939453 
	C608.660217,963.203003 618.889893,962.213562 627.321411,955.756287 
	C630.949829,952.977539 634.426392,950.000366 638.702637,946.518311 
	C660.060913,992.411255 681.185913,1037.802856 702.755615,1084.149902 
	C706.650146,1065.378418 710.320190,1047.689209 714.382263,1029.999512 
	C717.381348,1028.925903 719.988403,1027.852783 722.981689,1026.714111 
	C731.762207,1026.766357 735.063171,1023.889404 736.256409,1015.785767 
	C737.378418,1008.166077 738.715515,1000.578003 740.325806,992.982788 
	C742.948303,994.046387 745.205750,995.097351 747.457397,996.160706 
	C759.301758,1001.755005 771.144653,1007.352478 783.101807,1013.162109 
	C783.642700,1013.808228 784.069702,1014.241089 784.496704,1014.674011 
z"/>
<path fill="#EE8255" opacity="1.000000" stroke="none" 
	d="
M1201.000000,835.531372 
	C1194.448975,833.716797 1187.779053,831.724060 1181.367188,829.100769 
	C1151.359985,816.824097 1121.418335,804.386658 1091.463989,791.980896 
	C1070.726318,783.392212 1050.006104,774.761597 1028.910645,765.554321 
	C1030.003906,746.312012 1026.459717,728.861145 1016.518372,712.797424 
	C1015.336792,710.888306 1015.124023,708.049194 1015.284180,705.697021 
	C1015.996277,695.234985 1016.974365,684.790344 1017.916687,674.344849 
	C1020.743958,643.007996 1023.512695,611.665466 1026.480591,580.341858 
	C1027.963745,564.687683 1029.043579,549.266235 1023.181091,534.010986 
	C1012.797058,506.989655 986.195068,490.010101 957.402832,493.036316 
	C948.486755,493.973480 939.643738,495.606354 930.826538,496.601196 
	C931.799744,495.174316 932.713745,494.066956 933.627686,492.959595 
	C939.015381,490.823578 944.483704,488.869446 949.776917,486.520660 
	C975.305542,475.192871 1000.740967,463.654388 1026.297485,452.390472 
	C1054.281006,440.056915 1082.378296,427.982117 1110.393311,415.719757 
	C1133.386841,405.655243 1156.332642,395.481262 1179.299438,385.355469 
	C1186.294556,382.271362 1193.289185,379.186157 1200.642090,376.050720 
	C1201.000000,529.020874 1201.000000,682.041809 1201.000000,835.531372 
z"/>
<path fill="#71539F" opacity="1.000000" stroke="none" 
	d="
M144.976715,778.847107 
	C137.933762,781.775818 130.809525,784.524597 123.861931,787.664246 
	C93.691338,801.298645 63.579243,815.062378 33.430164,828.744446 
	C24.190331,832.937622 14.910787,837.043945 5.620158,841.123413 
	C4.433384,841.644470 3.069010,841.761108 1.393457,842.032532 
	C1.000000,686.979126 1.000000,531.958191 1.000000,376.468658 
	C14.562489,381.462372 28.191191,386.766754 41.674122,392.418915 
	C72.964684,405.536102 104.199005,418.787903 135.427704,432.052063 
	C151.499557,438.878418 167.510620,445.847931 183.862701,453.169983 
	C184.176239,453.587250 184.215500,454.069000 184.004166,454.339294 
	C168.774200,472.858582 161.330109,493.561218 163.929688,517.333374 
	C167.414703,549.202515 182.569901,572.247742 214.147034,582.487793 
	C217.016312,583.418213 218.084091,584.801270 218.044647,587.808350 
	C217.911392,597.964172 218.024826,608.123108 217.881897,618.569336 
	C195.457840,632.880432 185.090546,653.456482 184.483047,679.357422 
	C184.308029,686.820068 184.350845,694.287781 183.905823,701.822144 
	C177.134613,706.752869 169.795959,710.761292 164.548035,716.637085 
	C149.063431,733.974304 143.352478,754.846252 145.124481,778.125122 
	C145.070908,778.364868 144.976715,778.847107 144.976715,778.847107 
z"/>
<path fill="#F8F6F7" opacity="1.000000" stroke="none" 
	d="
M184.293793,701.753174 
	C184.350845,694.287781 184.308029,686.820068 184.483047,679.357422 
	C185.090546,653.456482 195.457840,632.880432 218.237640,618.497986 
	C230.136917,614.231384 241.518402,610.324646 252.899887,606.417847 
	C253.648758,606.709045 253.873047,605.742249 253.873672,604.775330 
	C253.893707,573.663696 253.834808,542.551758 253.973267,511.440704 
	C253.988907,507.923828 252.508179,507.046204 249.472504,506.433655 
	C235.279037,503.569458 222.836960,497.161346 214.591309,485.090485 
	C209.328842,477.386810 205.903824,468.427948 201.724518,459.637085 
	C201.236816,452.794067 200.679581,446.345856 200.122345,439.897614 
	C200.178452,430.756378 200.241302,421.615143 200.289474,412.473877 
	C200.477570,376.777924 223.278748,349.534698 259.151123,342.970703 
	C272.842896,340.783234 285.755280,338.707855 299.030212,336.574249 
	C298.498383,334.707764 298.275940,333.602722 297.874603,332.567017 
	C291.563568,316.278992 285.293701,299.974579 278.881805,283.726196 
	C273.086090,269.039215 267.129517,254.415695 261.243866,239.764175 
	C254.675858,222.513275 248.106125,205.263016 241.541107,188.010986 
	C239.883636,183.655396 238.354248,179.246994 236.562775,174.947556 
	C234.426956,169.821701 235.513062,165.597626 239.483871,161.851593 
	C243.534195,158.030579 247.889755,156.923233 253.170242,159.273926 
	C272.937836,168.073746 292.739716,176.797379 312.564301,185.468246 
	C355.568939,204.277634 398.595154,223.037796 441.616394,241.809174 
	C442.376862,242.140976 443.186005,242.361237 444.344696,242.748047 
	C459.761169,249.556564 474.790649,256.283905 489.852905,262.937012 
	C514.056030,273.627716 538.279480,284.272308 562.500854,294.921661 
	C563.560242,295.387451 564.658813,295.812531 565.781372,296.078278 
	C574.831848,298.220581 583.892517,300.320129 593.570374,302.688904 
	C597.995117,304.472290 601.741455,306.184174 605.640381,307.411011 
	C606.767639,307.765778 608.821472,307.153595 609.608765,306.250671 
	C612.281433,303.185577 614.577576,299.792084 617.390015,296.456512 
	C632.302429,284.005524 649.806213,279.292786 668.221863,277.192139 
	C672.167419,276.742096 673.221436,275.195343 673.007385,271.475800 
	C672.157898,256.715057 671.621094,241.936356 670.772827,227.175568 
	C670.182922,216.911179 669.273743,206.665115 668.593262,196.073196 
	C671.306824,190.513138 673.934387,185.290741 676.561951,180.068344 
	C676.948181,180.166367 677.334473,180.264404 677.720703,180.362427 
	C681.298279,211.271317 684.875916,242.180206 688.531433,273.762726 
	C694.972290,272.383759 700.407959,271.219971 705.843628,270.056213 
	C720.920410,269.113281 735.997192,268.170410 751.540649,267.175079 
	C761.749817,269.177155 771.673401,270.615906 781.196899,273.415344 
	C800.604858,279.120361 817.288940,289.644562 830.983276,304.566254 
	C834.193787,308.064606 837.254395,308.522491 841.554871,307.524200 
	C887.417053,296.877808 933.297607,286.308990 979.203369,275.851898 
	C1005.477905,269.866638 1031.807373,264.122009 1058.114136,258.278412 
	C1063.023926,257.187805 1067.435425,257.751526 1070.520020,262.293060 
	C1073.684692,266.952728 1073.817139,271.416412 1070.317993,276.169434 
	C1058.871704,291.716644 1047.260864,307.142487 1035.732788,322.629486 
	C1034.945679,323.686859 1034.318115,324.862946 1033.275024,326.479065 
	C1031.543579,328.617188 1030.070557,330.197205 1028.776123,331.912048 
	C1007.395386,360.236542 986.121643,388.642212 964.648438,416.896332 
	C945.795898,441.702179 926.700745,466.323639 907.818665,491.107208 
	C906.794678,492.451263 905.786804,495.338287 906.438354,496.122986 
	C907.995361,497.998169 910.653931,500.347748 912.680115,500.184021 
	C918.757385,499.692902 924.744812,498.089813 930.767273,496.920685 
	C939.643738,495.606354 948.486755,493.973480 957.402832,493.036316 
	C986.195068,490.010101 1012.797058,506.989655 1023.181091,534.010986 
	C1029.043579,549.266235 1027.963745,564.687683 1026.480591,580.341858 
	C1023.512695,611.665466 1020.743958,643.007996 1017.916687,674.344849 
	C1016.974365,684.790344 1015.996277,695.234985 1015.284180,705.697021 
	C1015.124023,708.049194 1015.336792,710.888306 1016.518372,712.797424 
	C1026.459717,728.861145 1030.003906,746.312012 1028.551270,765.417847 
	C1027.815063,769.777527 1027.163940,773.698853 1026.311646,777.575806 
	C1021.748413,798.332275 1010.755493,815.038757 993.769714,828.642090 
	C985.007568,833.587891 977.118347,839.190430 968.359802,842.474915 
	C948.583069,849.891052 928.283691,851.078308 907.770386,843.530945 
	C902.701965,840.816711 897.622498,838.729858 893.095886,835.791260 
	C889.916809,833.727417 888.159607,833.750610 886.392578,837.438599 
	C881.309387,841.318787 876.502625,844.981995 871.327576,848.620728 
	C864.756226,850.973083 858.735291,854.249390 852.314209,855.549011 
	C836.502502,858.749451 820.586182,862.130676 804.555969,863.298706 
	C794.596863,864.024414 785.081055,865.585266 775.439087,867.786682 
	C764.583130,870.265076 753.368103,871.194275 742.541382,873.772156 
	C721.263794,878.838318 702.673523,874.505920 686.567261,859.655334 
	C686.119202,859.242249 685.439941,859.079895 684.631348,858.684814 
	C681.985962,862.430908 679.435425,866.042664 676.562744,869.780457 
	C671.819885,873.607056 667.399170,877.307617 662.635376,881.043945 
	C650.656555,888.912781 637.499268,892.131104 623.824524,893.855225 
	C609.515869,895.659363 595.167908,897.241272 580.935181,899.529907 
	C569.801819,901.320129 558.811096,904.008301 547.769775,906.357544 
	C531.368164,909.847107 515.149536,911.285645 499.605011,902.813171 
	C498.748199,902.346191 496.852020,902.554626 496.156891,903.209717 
	C487.562256,911.309326 477.150421,915.889282 465.627319,919.100464 
	C451.924225,921.225647 438.568695,923.141785 425.329590,925.668335 
	C411.536255,928.300781 398.851898,925.562683 386.863678,918.849670 
	C384.101532,917.303040 382.436127,917.287170 380.036987,919.596069 
	C368.907440,930.307373 355.746735,936.878235 340.219147,938.555786 
	C334.270813,939.198364 328.407990,940.597839 322.470520,941.382629 
	C312.926849,942.644104 303.273346,945.093872 293.807373,944.556335 
	C261.702271,942.733215 238.087753,916.965454 237.942795,884.754089 
	C237.819901,857.445618 237.851257,830.136475 237.804565,802.827637 
	C237.790039,794.335388 237.869583,785.839111 237.594986,777.354736 
	C237.545837,775.836121 236.187149,773.260071 235.069153,773.042480 
	C220.786835,770.263062 209.121231,763.049377 199.081085,752.381470 
	C191.638092,742.767456 186.993332,732.238647 185.414368,720.536194 
	C184.578049,714.337646 184.638290,708.018066 184.293793,701.753174 
M335.210785,330.337097 
	C352.917908,327.369202 370.691284,324.743988 388.313629,321.337494 
	C406.125854,317.894348 423.319458,317.361328 439.573273,327.208618 
	C441.013367,328.081085 444.071472,327.469238 445.782318,326.497650 
	C452.279877,322.807526 458.541687,318.700745 464.866272,314.709534 
	C465.769684,314.139404 466.533569,313.348175 468.092590,312.051788 
	C464.546509,310.254120 461.646606,308.743256 458.712219,307.302643 
	C422.390015,289.470978 386.033112,271.709625 349.749054,253.800659 
	C331.096924,244.594376 312.572388,235.129623 293.567230,225.248459 
	C292.144897,221.956070 290.722534,218.663696 288.798248,214.209396 
	C291.745972,215.338089 293.556091,215.960190 295.309906,216.713333 
	C323.918335,228.998901 352.524414,241.289932 381.121399,253.602173 
	C417.214203,269.141693 453.289917,284.720947 489.405090,300.208221 
	C491.773529,301.223877 494.577179,302.522034 496.900360,302.112274 
	C505.206604,300.647247 513.392944,298.502533 523.155518,296.263916 
	C434.170288,257.758911 346.371429,219.767227 257.714325,181.404190 
	C258.462738,183.433258 258.831238,184.486298 259.237122,185.524689 
	C268.877258,210.187439 278.563324,234.832321 288.152710,259.514740 
	C297.199432,282.800415 306.101044,306.142639 315.231781,329.395081 
	C315.858398,330.990845 317.991547,333.262817 319.209991,333.137604 
	C324.305298,332.613861 329.318909,331.295074 335.210785,330.337097 
M791.333496,519.755005 
	C785.930603,522.604187 780.727478,525.956848 775.082886,528.197083 
	C763.576050,532.763855 751.831238,536.731140 740.058899,540.023071 
	C740.047180,535.023254 740.205750,530.015076 739.960022,525.026733 
	C739.812500,522.032654 741.121338,521.071045 743.793335,520.390381 
	C805.164062,504.757629 854.211792,450.073730 844.736084,375.409302 
	C840.245361,340.024933 822.687378,313.016357 790.322876,296.625763 
	C768.747131,285.699005 745.695068,283.351501 722.134399,286.570007 
	C700.684937,289.500092 679.391724,293.566101 658.017639,297.058044 
	C638.783997,300.200348 625.007507,310.445892 616.966125,328.270203 
	C616.222168,329.919220 615.495239,331.575928 614.656738,333.462372 
	C586.701965,316.516785 556.665527,310.796753 524.671753,314.864258 
	C492.706451,318.928162 464.593506,331.590790 440.886658,353.086029 
	C440.250854,352.860657 440.057129,352.845276 439.943481,352.741882 
	C439.579071,352.410370 439.210449,352.073486 438.902954,351.690887 
	C429.077728,339.466095 416.299438,335.320068 401.082855,337.876190 
	C391.717773,339.449341 382.362976,341.083893 372.995941,342.644958 
	C336.675995,348.697968 300.406189,355.079407 264.013611,360.659729 
	C236.867203,364.822327 218.907516,384.050568 218.275696,411.493408 
	C217.995773,423.652222 217.991486,435.827881 218.266998,447.986725 
	C218.844543,473.474304 240.902679,492.494019 266.205414,489.586914 
	C267.784912,489.405457 269.373627,489.303864 271.063019,489.155884 
	C271.261566,490.351562 271.459961,490.992828 271.461487,491.634552 
	C271.562592,534.462891 271.620972,577.291382 271.793854,620.119385 
	C271.805573,623.022278 270.541656,623.818298 268.044189,624.180542 
	C260.459778,625.280579 252.905884,626.590271 245.323853,627.708130 
	C222.770203,631.033447 204.105118,650.575439 202.783447,673.465149 
	C201.987549,687.249023 201.962204,701.151184 202.736923,714.935791 
	C204.145966,740.006409 224.762405,757.233093 249.872223,755.196411 
	C251.642517,755.052795 253.417358,754.965332 255.835190,754.810364 
	C255.835190,757.275879 255.836395,759.234192 255.835007,761.192505 
	C255.805801,802.354614 255.620895,843.517334 255.801987,884.678528 
	C255.921051,911.740051 279.321320,930.881714 305.946625,926.212158 
	C317.432770,924.197632 328.903259,922.050354 340.442505,920.392456 
	C358.581757,917.786194 370.702454,907.611145 378.276855,891.372192 
	C378.990509,889.842102 379.699829,888.309998 380.624817,886.318909 
	C391.968750,904.858337 407.485046,911.375610 427.915283,907.094666 
	C438.501831,904.876282 449.273987,903.523010 459.982239,901.911438 
	C471.684418,900.150208 481.536804,895.104736 488.866516,885.703552 
	C491.177826,882.739014 492.927246,879.336365 494.989624,876.045166 
	C495.549225,876.364075 496.075226,876.500977 496.345001,876.841125 
	C506.770172,889.986816 520.442810,892.249634 536.282593,890.164185 
	C555.084656,887.688843 573.203857,881.091248 592.387085,881.151550 
	C593.046570,881.153625 593.709900,880.993896 594.365845,880.877808 
	C606.339844,878.758057 618.299377,876.552551 630.289246,874.527100 
	C653.903259,870.538086 668.924988,857.196472 675.145569,833.948669 
	C675.552856,832.426514 677.289612,830.832092 678.804810,830.138550 
	C680.871948,829.192505 683.336243,828.668213 685.600159,828.754333 
	C687.123413,828.812256 689.423889,829.874084 689.965820,831.106934 
	C699.328430,852.406189 713.229248,860.063721 736.210022,856.268494 
	C743.934326,854.992859 751.658142,853.710266 759.363892,852.328674 
	C766.901550,850.977173 775.592651,851.380676 781.647034,847.601135 
	C789.487000,842.707031 796.673645,846.853638 803.986389,845.514771 
	C818.568726,842.845032 833.268005,840.802673 847.826294,838.016602 
	C865.746399,834.587158 878.001526,823.998779 884.862000,807.127869 
	C885.516235,805.519104 886.127808,803.892944 886.316406,803.409607 
	C892.514771,809.343506 898.000366,816.253784 904.977905,820.944824 
	C921.789612,832.247498 940.407471,832.423767 959.253235,826.748535 
	C1006.534302,812.510376 1025.306885,759.129272 997.759827,717.721375 
	C996.935181,716.481812 996.499207,714.649109 996.629028,713.157898 
	C1000.212036,671.991272 1004.045776,630.845764 1007.464539,589.665833 
	C1008.522095,576.928040 1009.909668,563.960876 1008.667725,551.342651 
	C1006.110535,525.360474 982.691772,507.989288 956.876221,511.795441 
	C941.389038,514.078857 925.986206,516.958801 910.587341,519.797485 
	C907.444458,520.376831 905.230835,519.914856 903.049561,517.551514 
	C899.209351,513.390686 895.136719,509.442474 891.120239,505.446594 
	C881.951050,496.324371 881.959534,496.348724 889.839050,485.958862 
	C940.879883,418.656219 991.912537,351.347321 1042.943481,284.037109 
	C1043.866333,282.820007 1044.734619,281.561584 1045.628418,280.322479 
	C1045.391602,280.010376 1045.154907,279.698242 1044.918213,279.386108 
	C978.801025,294.460938 912.683777,309.535797 846.233459,324.686584 
	C848.514954,329.532990 850.607239,333.343384 852.107910,337.374023 
	C853.223816,340.371246 854.591797,340.911896 857.670593,340.177155 
	C899.144836,330.279755 940.649292,320.508972 982.159546,310.762970 
	C989.622192,309.010895 997.144287,307.511810 1004.638916,305.895935 
	C1004.803284,306.241730 1004.967651,306.587524 1005.132019,306.933319 
	C1001.578674,311.284485 998.025330,315.635651 993.583618,319.835968 
	C990.992554,320.415436 988.356812,320.844269 985.817017,321.596832 
	C944.963074,333.702759 904.130981,345.882690 863.255676,357.916077 
	C860.443726,358.743896 860.090881,359.870972 860.537720,362.525757 
	C862.942993,376.815125 864.493103,391.095093 863.207581,405.712830 
	C861.151062,429.096527 853.975647,450.643921 841.791321,470.541138 
	C829.296570,490.945251 812.167480,506.757507 791.333496,519.755005 
z"/>
<path fill="#8A643E" opacity="1.000000" stroke="none" 
	d="
M930.826538,496.601196 
	C924.744812,498.089813 918.757385,499.692902 912.680115,500.184021 
	C910.653931,500.347748 907.995361,497.998169 906.438354,496.122986 
	C905.786804,495.338287 906.794678,492.451263 907.818665,491.107208 
	C926.700745,466.323639 945.795898,441.702179 964.648438,416.896332 
	C986.121643,388.642212 1007.395386,360.236542 1028.776123,331.912048 
	C1030.070557,330.197205 1031.543579,328.617188 1033.210327,326.828674 
	C1035.303589,326.844971 1037.125610,326.960144 1038.935547,327.176910 
	C1048.423706,328.313049 1051.939941,335.852905 1046.447632,343.677338 
	C1042.343750,349.523956 1037.907349,355.138062 1033.590332,360.833954 
	C1013.516785,387.319519 993.453125,413.812469 973.346252,440.272644 
	C960.678772,456.942780 947.939880,473.558563 935.242798,490.206177 
	C934.742432,490.862305 934.342590,491.595032 933.761841,492.625824 
	C932.713745,494.066956 931.799744,495.174316 930.826538,496.601196 
z"/>
<path fill="#8D315F" opacity="1.000000" stroke="none" 
	d="
M260.888458,239.697311 
	C267.129517,254.415695 273.086090,269.039215 278.881805,283.726196 
	C285.293701,299.974579 291.563568,316.278992 297.874603,332.567017 
	C298.275940,333.602722 298.498383,334.707764 299.030212,336.574249 
	C285.755280,338.707855 272.842896,340.783234 259.542358,342.822937 
	C243.913696,307.503265 228.740585,272.189880 213.353348,236.970001 
	C211.270233,232.201950 212.280060,228.506882 215.531937,225.177780 
	C218.608887,222.027756 222.012009,223.132721 225.640457,224.738541 
	C237.203445,229.855911 248.892624,234.688095 260.888458,239.697311 
z"/>
<path fill="#77305D" opacity="1.000000" stroke="none" 
	d="
M199.776947,439.977173 
	C200.679581,446.345856 201.236816,452.794067 201.365601,459.625854 
	C195.363281,458.029266 189.789398,456.049133 184.215500,454.069000 
	C184.215500,454.069000 184.176239,453.587250 184.184906,453.346558 
	C189.272888,448.756134 194.352203,444.406433 199.776947,439.977173 
z"/>
<path fill="#29526B" opacity="1.000000" stroke="none" 
	d="
M199.187912,752.695923 
	C209.121231,763.049377 220.786835,770.263062 235.069153,773.042480 
	C236.187149,773.260071 237.545837,775.836121 237.594986,777.354736 
	C237.869583,785.839111 237.790039,794.335388 237.804565,802.827637 
	C237.851257,830.136475 237.819901,857.445618 237.942795,884.754089 
	C238.087753,916.965454 261.702271,942.733215 293.807373,944.556335 
	C303.273346,945.093872 312.926849,942.644104 322.470520,941.382629 
	C328.407990,940.597839 334.270813,939.198364 340.219147,938.555786 
	C355.746735,936.878235 368.907440,930.307373 380.036987,919.596069 
	C382.436127,917.287170 384.101532,917.303040 386.863678,918.849670 
	C398.851898,925.562683 411.536255,928.300781 425.329590,925.668335 
	C438.568695,923.141785 451.924225,921.225647 465.618530,919.468140 
	C458.834167,936.269531 451.596588,952.616760 444.515472,969.031494 
	C441.513611,975.990112 438.840332,983.090454 436.017731,990.126404 
	C435.550598,990.401978 435.083466,990.677551 434.343079,991.004517 
	C419.349304,993.541809 404.596771,995.854187 389.917145,998.561951 
	C375.116180,1001.292053 361.900299,998.169739 350.242157,988.704163 
	C348.241425,987.079651 346.619019,986.224182 344.898834,988.735046 
	C334.704102,1003.616272 319.797852,1009.699341 302.586914,1011.924988 
	C291.731934,1013.328735 280.926941,1015.212219 270.166321,1017.235718 
	C235.037964,1023.841736 207.590881,999.555664 202.052719,969.450378 
	C201.365631,965.715515 201.021851,961.867981 200.996033,958.069458 
	C200.875992,940.412720 201.021500,922.754089 200.884750,905.097534 
	C200.742981,886.795288 200.324463,868.495239 200.184647,850.192932 
	C200.161789,847.199890 199.247986,845.838867 196.276794,844.969727 
	C169.390442,837.105103 154.540390,817.918701 147.143677,791.976074 
	C146.014282,788.014893 145.720978,783.815308 145.008835,779.286560 
	C144.976715,778.847107 145.070908,778.364868 145.466446,778.109619 
	C157.035294,772.840332 168.263916,767.944702 179.361343,762.767883 
	C186.075302,759.635864 192.585922,756.067932 199.187912,752.695923 
z"/>
<path fill="#7A233B" opacity="1.000000" stroke="none" 
	d="
M784.923706,1014.730835 
	C784.069702,1014.241089 783.642700,1013.808228 783.061035,1012.807861 
	C772.652161,990.255920 762.437927,968.252563 752.067627,946.322937 
	C751.238647,944.569763 749.332275,943.326111 747.862793,941.451782 
	C748.473755,937.526550 749.148438,933.995117 749.879578,930.168640 
	C751.655518,930.850098 752.909607,931.254578 754.099609,931.799072 
	C805.650696,955.384277 857.198242,978.977478 908.731995,1002.600464 
	C910.214661,1003.280151 911.545349,1004.291321 912.946899,1005.147949 
	C921.337036,1024.540039 929.736389,1043.927979 938.108826,1063.327759 
	C939.624878,1066.840576 941.127808,1070.364990 942.460632,1073.949463 
	C943.770996,1077.473389 943.883240,1081.535034 940.555115,1083.416992 
	C938.349670,1084.664185 934.358276,1084.461548 931.909668,1083.317383 
	C884.847961,1061.326660 837.898621,1039.095703 790.914185,1016.939392 
	C789.120422,1016.093445 787.207947,1015.499084 784.923706,1014.730835 
z"/>
<path fill="#F8F5F7" opacity="1.000000" stroke="none" 
	d="
M913.307678,1005.068115 
	C911.545349,1004.291321 910.214661,1003.280151 908.731995,1002.600464 
	C857.198242,978.977478 805.650696,955.384277 754.099609,931.799072 
	C752.909607,931.254578 751.655518,930.850098 749.879578,930.168640 
	C749.148438,933.995117 748.473755,937.526550 747.669189,941.828857 
	C746.824524,947.332581 746.107300,952.065063 745.395447,956.798401 
	C743.581726,968.857422 741.770325,980.916809 739.958008,992.976013 
	C738.715515,1000.578003 737.378418,1008.166077 736.256409,1015.785767 
	C735.063171,1023.889404 731.762207,1026.766357 722.741272,1026.455566 
	C720.350769,1025.009033 718.587036,1023.755432 716.661499,1022.129272 
	C716.468811,1019.635071 716.052551,1017.432556 716.477539,1015.406433 
	C717.889771,1008.673950 719.604431,1002.004883 721.303589,994.915283 
	C726.495422,964.541382 731.586670,934.563599 736.683777,904.551697 
	C808.800842,937.514648 880.293945,970.192383 951.787109,1002.870117 
	C952.130310,1002.416748 952.473572,1001.963379 952.816772,1001.510010 
	C938.926880,967.116211 925.036926,932.722351 911.482971,898.095398 
	C913.557373,897.949402 915.310242,897.924377 917.031372,898.146240 
	C921.065735,898.666382 925.084961,899.304810 929.364075,900.123108 
	C932.055481,905.524536 934.493103,910.698120 936.930725,915.871704 
	C943.110046,931.284851 949.304077,946.692139 955.464661,962.112793 
	C962.001282,978.474976 968.616211,994.807312 974.970520,1011.240234 
	C977.489929,1017.755676 975.329773,1022.708801 969.531677,1025.963135 
	C965.697266,1028.115356 962.209106,1027.069702 958.607788,1025.410400 
	C945.170471,1019.219238 931.707275,1013.084167 918.248474,1006.939819 
	C916.739380,1006.250854 915.195923,1005.636963 913.307678,1005.068115 
z"/>
<path fill="#7A243B" opacity="1.000000" stroke="none" 
	d="
M937.305908,915.819641 
	C934.493103,910.698120 932.055481,905.524536 929.396790,899.733521 
	C925.608521,890.075256 921.968140,881.062317 918.494385,871.985657 
	C914.910400,862.620911 911.488403,853.194153 907.995544,843.794495 
	C928.283691,851.078308 948.583069,849.891052 968.359802,842.474915 
	C977.118347,839.190430 985.007568,833.587891 993.622803,828.937927 
	C996.319458,840.677979 995.272217,852.274658 991.232117,863.588562 
	C981.906799,889.703613 964.004700,907.070618 937.305908,915.819641 
z"/>
<path fill="#0B0707" opacity="1.000000" stroke="none" 
	d="
M705.746338,269.644836 
	C700.407959,271.219971 694.972290,272.383759 688.531433,273.762726 
	C684.875916,242.180206 681.298279,211.271317 677.720703,180.362427 
	C677.334473,180.264404 676.948181,180.166367 676.561951,180.068344 
	C673.934387,185.290741 671.306824,190.513138 668.329407,196.317612 
	C655.626465,220.774460 643.231445,244.627640 630.941528,268.534882 
	C626.177795,277.801666 621.651794,287.190704 617.017456,296.524017 
	C614.577576,299.792084 612.281433,303.185577 609.608765,306.250671 
	C608.821472,307.153595 606.767639,307.765778 605.640381,307.411011 
	C601.741455,306.184174 597.995117,304.472290 593.962524,302.692719 
	C624.767578,242.468231 655.800842,182.496063 686.834167,122.523895 
	C687.349792,122.657166 687.865417,122.790443 688.381104,122.923714 
	C694.137085,171.693619 699.893066,220.463531 705.746338,269.644836 
z"/>
<path fill="#3C2E54" opacity="1.000000" stroke="none" 
	d="
M436.450104,990.104492 
	C438.840332,983.090454 441.513611,975.990112 444.515472,969.031494 
	C451.596588,952.616760 458.834167,936.269531 466.017242,919.527344 
	C477.150421,915.889282 487.562256,911.309326 496.156891,903.209717 
	C496.852020,902.554626 498.748199,902.346191 499.605011,902.813171 
	C515.149536,911.285645 531.368164,909.847107 547.769775,906.357544 
	C558.811096,904.008301 569.801819,901.320129 580.935181,899.529907 
	C595.167908,897.241272 609.515869,895.659363 623.824524,893.855225 
	C637.499268,892.131104 650.656555,888.912781 662.661865,881.433472 
	C664.200195,884.824463 665.207275,887.936401 666.567993,890.885010 
	C670.689819,899.816467 674.948669,908.684692 678.867737,917.822388 
	C676.735474,919.185974 675.019592,920.773132 673.017456,921.328247 
	C668.525635,922.573669 668.793579,924.751465 670.593994,928.260681 
	C676.889771,940.532043 682.975525,952.911682 689.082458,965.279114 
	C696.880737,981.072021 704.721497,996.845581 712.302979,1012.742371 
	C713.804016,1015.889832 714.213867,1019.557556 715.058960,1023.375183 
	C714.657349,1025.843384 714.323792,1027.921631 713.990234,1030.000000 
	C710.320190,1047.689209 706.650146,1065.378418 702.755615,1084.149902 
	C681.185913,1037.802856 660.060913,992.411255 638.702637,946.518311 
	C634.426392,950.000366 630.949829,952.977539 627.321411,955.756287 
	C618.889893,962.213562 608.660217,963.203003 598.696777,964.939453 
	C580.565918,968.099182 562.426270,971.208130 544.293884,974.359253 
	C532.043823,976.488159 519.856750,979.099121 507.535889,980.663330 
	C497.378693,981.952942 487.632935,979.524597 479.107788,973.611572 
	C475.584961,971.168091 473.698608,970.697571 470.263397,974.558228 
	C461.542084,984.359680 450.208679,989.634033 436.450104,990.104492 
z"/>
<path fill="#423058" opacity="1.000000" stroke="none" 
	d="
M740.325806,992.982788 
	C741.770325,980.916809 743.581726,968.857422 745.395447,956.798401 
	C746.107300,952.065063 746.824524,947.332581 747.732910,942.222656 
	C749.332275,943.326111 751.238647,944.569763 752.067627,946.322937 
	C762.437927,968.252563 772.652161,990.255920 782.947266,1012.594604 
	C771.144653,1007.352478 759.301758,1001.755005 747.457397,996.160706 
	C745.205750,995.097351 742.948303,994.046387 740.325806,992.982788 
z"/>
<path fill="#6E509A" opacity="1.000000" stroke="none" 
	d="
M714.382263,1029.999512 
	C714.323792,1027.921631 714.657349,1025.843384 715.491577,1023.286621 
	C716.269348,1022.705994 716.546326,1022.603882 716.823303,1022.501831 
	C718.587036,1023.755432 720.350769,1025.009033 722.354980,1026.521240 
	C719.988403,1027.852783 717.381348,1028.925903 714.382263,1029.999512 
z"/>
<path fill="#3C2E54" opacity="1.000000" stroke="none" 
	d="
M184.004166,454.339294 
	C189.789398,456.049133 195.363281,458.029266 201.296082,460.020630 
	C205.903824,468.427948 209.328842,477.386810 214.591309,485.090485 
	C222.836960,497.161346 235.279037,503.569458 249.472504,506.433655 
	C252.508179,507.046204 253.988907,507.923828 253.973267,511.440704 
	C253.834808,542.551758 253.893707,573.663696 253.873672,604.775330 
	C253.873047,605.742249 253.648758,606.709045 252.899887,606.417847 
	C241.518402,610.324646 230.136917,614.231384 218.399689,618.209534 
	C218.024826,608.123108 217.911392,597.964172 218.044647,587.808350 
	C218.084091,584.801270 217.016312,583.418213 214.147034,582.487793 
	C182.569901,572.247742 167.414703,549.202515 163.929688,517.333374 
	C161.330109,493.561218 168.774200,472.858582 184.004166,454.339294 
z"/>
<path fill="#3D2E55" opacity="1.000000" stroke="none" 
	d="
M199.081085,752.381470 
	C192.585922,756.067932 186.075302,759.635864 179.361343,762.767883 
	C168.263916,767.944702 157.035294,772.840332 145.520020,777.869873 
	C143.352478,754.846252 149.063431,733.974304 164.548035,716.637085 
	C169.795959,710.761292 177.134613,706.752869 183.905823,701.822144 
	C184.638290,708.018066 184.578049,714.337646 185.414368,720.536194 
	C186.993332,732.238647 191.638092,742.767456 199.081085,752.381470 
z"/>
<path fill="#070506" opacity="1.000000" stroke="none" 
	d="
M994.472046,319.986816 
	C998.025330,315.635651 1001.578674,311.284485 1005.132019,306.933319 
	C1004.967651,306.587524 1004.803284,306.241730 1004.638916,305.895935 
	C997.144287,307.511810 989.622192,309.010895 982.159546,310.762970 
	C940.649292,320.508972 899.144836,330.279755 857.670593,340.177155 
	C854.591797,340.911896 853.223816,340.371246 852.107910,337.374023 
	C850.607239,333.343384 848.514954,329.532990 846.233459,324.686584 
	C912.683777,309.535797 978.801025,294.460938 1044.918213,279.386108 
	C1045.154907,279.698242 1045.391602,280.010376 1045.628418,280.322479 
	C1044.734619,281.561584 1043.866333,282.820007 1042.943481,284.037109 
	C991.912537,351.347321 940.879883,418.656219 889.839050,485.958862 
	C881.959534,496.348724 881.951050,496.324371 891.120239,505.446594 
	C895.136719,509.442474 899.209351,513.390686 903.049561,517.551514 
	C905.230835,519.914856 907.444458,520.376831 910.587341,519.797485 
	C925.986206,516.958801 941.389038,514.078857 956.876221,511.795441 
	C982.691772,507.989288 1006.110535,525.360474 1008.667725,551.342651 
	C1009.909668,563.960876 1008.522095,576.928040 1007.464539,589.665833 
	C1004.045776,630.845764 1000.212036,671.991272 996.629028,713.157898 
	C996.499207,714.649109 996.935181,716.481812 997.759827,717.721375 
	C1025.306885,759.129272 1006.534302,812.510376 959.253235,826.748535 
	C940.407471,832.423767 921.789612,832.247498 904.977905,820.944824 
	C898.000366,816.253784 892.514771,809.343506 886.316406,803.409607 
	C886.127808,803.892944 885.516235,805.519104 884.862000,807.127869 
	C878.001526,823.998779 865.746399,834.587158 847.826294,838.016602 
	C833.268005,840.802673 818.568726,842.845032 803.986389,845.514771 
	C796.673645,846.853638 789.487000,842.707031 781.647034,847.601135 
	C775.592651,851.380676 766.901550,850.977173 759.363892,852.328674 
	C751.658142,853.710266 743.934326,854.992859 736.210022,856.268494 
	C713.229248,860.063721 699.328430,852.406189 689.965820,831.106934 
	C689.423889,829.874084 687.123413,828.812256 685.600159,828.754333 
	C683.336243,828.668213 680.871948,829.192505 678.804810,830.138550 
	C677.289612,830.832092 675.552856,832.426514 675.145569,833.948669 
	C668.924988,857.196472 653.903259,870.538086 630.289246,874.527100 
	C618.299377,876.552551 606.339844,878.758057 594.365845,880.877808 
	C593.709900,880.993896 593.046570,881.153625 592.387085,881.151550 
	C573.203857,881.091248 555.084656,887.688843 536.282593,890.164185 
	C520.442810,892.249634 506.770172,889.986816 496.345001,876.841125 
	C496.075226,876.500977 495.549225,876.364075 494.989624,876.045166 
	C492.927246,879.336365 491.177826,882.739014 488.866516,885.703552 
	C481.536804,895.104736 471.684418,900.150208 459.982239,901.911438 
	C449.273987,903.523010 438.501831,904.876282 427.915283,907.094666 
	C407.485046,911.375610 391.968750,904.858337 380.624817,886.318909 
	C379.699829,888.309998 378.990509,889.842102 378.276855,891.372192 
	C370.702454,907.611145 358.581757,917.786194 340.442505,920.392456 
	C328.903259,922.050354 317.432770,924.197632 305.946625,926.212158 
	C279.321320,930.881714 255.921051,911.740051 255.801987,884.678528 
	C255.620895,843.517334 255.805801,802.354614 255.835007,761.192505 
	C255.836395,759.234192 255.835190,757.275879 255.835190,754.810364 
	C253.417358,754.965332 251.642517,755.052795 249.872223,755.196411 
	C224.762405,757.233093 204.145966,740.006409 202.736923,714.935791 
	C201.962204,701.151184 201.987549,687.249023 202.783447,673.465149 
	C204.105118,650.575439 222.770203,631.033447 245.323853,627.708130 
	C252.905884,626.590271 260.459778,625.280579 268.044189,624.180542 
	C270.541656,623.818298 271.805573,623.022278 271.793854,620.119385 
	C271.620972,577.291382 271.562592,534.462891 271.461487,491.634552 
	C271.459961,490.992828 271.261566,490.351562 271.063019,489.155884 
	C269.373627,489.303864 267.784912,489.405457 266.205414,489.586914 
	C240.902679,492.494019 218.844543,473.474304 218.266998,447.986725 
	C217.991486,435.827881 217.995773,423.652222 218.275696,411.493408 
	C218.907516,384.050568 236.867203,364.822327 264.013611,360.659729 
	C300.406189,355.079407 336.675995,348.697968 372.995941,342.644958 
	C382.362976,341.083893 391.717773,339.449341 401.082855,337.876190 
	C416.299438,335.320068 429.077728,339.466095 438.902954,351.690887 
	C439.210449,352.073486 439.579071,352.410370 439.943481,352.741882 
	C440.057129,352.845276 440.250854,352.860657 440.886658,353.086029 
	C464.593506,331.590790 492.706451,318.928162 524.671753,314.864258 
	C556.665527,310.796753 586.701965,316.516785 614.656738,333.462372 
	C615.495239,331.575928 616.222168,329.919220 616.966125,328.270203 
	C625.007507,310.445892 638.783997,300.200348 658.017639,297.058044 
	C679.391724,293.566101 700.684937,289.500092 722.134399,286.570007 
	C745.695068,283.351501 768.747131,285.699005 790.322876,296.625763 
	C822.687378,313.016357 840.245361,340.024933 844.736084,375.409302 
	C854.211792,450.073730 805.164062,504.757629 743.793335,520.390381 
	C741.121338,521.071045 739.812500,522.032654 739.960022,525.026733 
	C740.205750,530.015076 740.047180,535.023254 740.000122,540.917725 
	C739.941345,543.738220 739.941345,545.664062 739.941345,548.715027 
	C750.208496,546.979797 759.662598,545.382019 769.447449,543.759644 
	C770.423828,543.586975 771.069336,543.438965 772.005066,543.449768 
	C772.859985,543.365173 773.424805,543.121826 774.327148,542.840454 
	C775.776123,542.585388 776.887573,542.368347 778.159729,542.329712 
	C779.008606,542.231995 779.696716,541.955811 780.788269,541.596191 
	C814.998230,535.759216 848.804688,530.005676 883.728027,524.062073 
	C874.910156,514.959351 866.987061,506.780365 859.060608,498.597931 
	C859.936279,497.332886 860.469421,496.493134 861.070190,495.704895 
	C898.601013,446.463074 936.154907,397.238831 973.657532,347.975525 
	C980.699585,338.725067 987.539062,329.320343 994.472046,319.986816 
M500.579712,359.010254 
	C490.849213,364.389709 480.089264,368.491608 471.561340,375.363495 
	C428.052979,410.423157 411.723480,456.690247 419.729431,511.236908 
	C423.939575,539.921509 438.742676,563.019104 464.619537,577.588684 
	C489.149048,591.399658 515.314575,592.383179 541.589172,584.166382 
	C613.445374,561.694824 647.889587,485.366943 629.526733,418.838165 
	C620.880249,387.511749 601.761902,365.166077 570.019470,355.530426 
	C546.918945,348.518097 523.891235,350.728149 500.579712,359.010254 
M443.953339,866.443298 
	C446.588562,866.041626 449.222839,865.633484 451.859161,865.239258 
	C463.196808,863.543945 464.627075,861.890137 464.581940,850.390625 
	C464.492950,827.725708 464.393158,805.060730 464.291382,782.395813 
	C464.256531,774.635498 466.713135,771.480103 474.434998,770.097900 
	C486.571075,767.925659 498.726898,765.853027 510.902893,763.917969 
	C520.000366,762.472107 522.417908,764.650330 522.447693,773.853149 
	C522.523132,797.185120 522.562988,820.517212 522.654419,843.849060 
	C522.684509,851.539246 525.278992,853.683594 532.897888,852.440613 
	C543.423096,850.723389 553.940552,848.958557 564.467957,847.254639 
	C572.030579,846.030640 574.102173,843.731445 574.090393,835.972290 
	C573.982239,764.809326 573.854370,693.646301 573.703491,622.483337 
	C573.687988,615.178406 571.217896,613.288818 564.075134,614.555542 
	C553.740112,616.388184 543.402344,618.220947 533.029541,619.819336 
	C524.235352,621.174622 522.373596,623.161133 522.397217,632.223816 
	C522.456238,654.889221 522.550659,677.554565 522.563538,700.219971 
	C522.568298,708.672180 520.155029,711.607910 511.802032,713.072815 
	C500.152618,715.115723 488.476501,717.013062 476.792664,718.851318 
	C467.026062,720.387878 464.351929,718.000671 464.333282,708.101257 
	C464.290588,685.435852 464.265564,662.770325 464.170715,640.105103 
	C464.138397,632.381348 462.303223,630.887756 454.846313,632.088745 
	C443.991211,633.837036 433.133148,635.567078 422.277802,637.313721 
	C415.385986,638.422668 413.076416,641.008484 413.083282,648.019348 
	C413.152893,719.182190 413.243561,790.344971 413.365479,861.507812 
	C413.378326,868.992859 416.311096,871.193237 423.872406,869.854065 
	C430.269196,868.720947 436.685120,867.695618 443.953339,866.443298 
M616.444580,728.945618 
	C615.334778,732.955017 614.230469,736.966003 613.114136,740.973633 
	C604.582214,771.602356 595.984131,802.212830 587.558533,832.870789 
	C585.403564,840.712219 588.325256,843.578186 596.277283,842.154968 
	C606.110840,840.395081 615.910217,838.308777 625.815552,837.128357 
	C633.819092,836.174561 638.023743,832.153870 639.721008,824.526733 
	C641.455872,816.730713 643.594299,809.023743 645.598389,801.288757 
	C646.745361,796.861877 649.492188,793.871887 654.058472,793.106628 
	C672.286621,790.051819 690.529724,787.084595 708.779480,784.161316 
	C713.410950,783.419495 716.414917,785.354065 717.762878,790.002869 
	C719.894836,797.356018 722.160339,804.671997 724.475098,811.970154 
	C726.394287,818.021179 728.719421,819.421143 734.877747,818.432617 
	C746.222412,816.611572 757.566833,814.788269 768.901978,812.909180 
	C775.544678,811.808044 778.272583,807.683838 776.807800,801.050476 
	C776.485657,799.591858 775.975952,798.172791 775.520691,796.745728 
	C766.969910,769.943054 758.370544,743.155823 749.869995,716.337219 
	C737.747375,678.091309 725.725952,639.813293 713.592102,601.570984 
	C710.933655,593.192261 708.359314,591.892395 699.899780,593.349976 
	C687.265808,595.526855 674.634094,597.783325 661.928711,599.452637 
	C655.017700,600.360596 651.257568,603.646667 649.432495,610.283081 
	C638.617920,649.607239 627.628235,688.883240 616.444580,728.945618 
M652.491516,340.301666 
	C652.022705,343.052551 651.167297,345.800659 651.147766,348.554749 
	C651.020081,366.543549 651.068176,384.533691 651.068604,402.523376 
	C651.069763,453.494293 651.070435,504.465240 651.085144,555.436157 
	C651.087463,563.397949 653.505615,565.478943 661.014465,564.255371 
	C671.203552,562.595093 681.406311,561.018616 691.598389,559.376648 
	C700.505615,557.941711 702.704712,555.405823 702.694031,546.522827 
	C702.674927,530.532166 702.565369,514.541382 702.599976,498.550934 
	C702.617188,490.622986 705.446167,487.298157 713.153992,485.961456 
	C719.878174,484.795410 726.673340,484.010040 733.365723,482.693451 
	C779.650391,473.587799 807.645081,440.436768 807.526611,394.637817 
	C807.472046,373.544067 802.116638,354.298584 785.388672,339.974274 
	C767.669250,324.800873 746.704834,321.478241 724.376465,324.745972 
	C703.289429,327.832031 682.254700,331.300903 661.259460,334.959930 
	C658.294189,335.476746 655.683350,338.027435 652.491516,340.301666 
M798.917969,786.496826 
	C798.933960,790.329102 798.917114,794.161926 798.972961,797.993591 
	C799.082214,805.494019 801.390198,807.484558 808.871704,806.307678 
	C819.072754,804.702881 829.247986,802.934509 839.445374,801.305603 
	C848.685913,799.829590 851.156738,797.073486 851.156616,787.809021 
	C851.156006,735.825989 851.143982,683.842896 851.119568,631.859863 
	C851.115295,622.892334 853.409363,620.076172 862.416504,618.472168 
	C872.581909,616.661926 882.778564,615.023926 892.930237,613.141907 
	C899.220642,611.975708 902.583740,608.503113 902.647461,602.291443 
	C902.766968,590.634827 902.543762,578.967834 902.146057,567.316040 
	C901.983887,562.565674 898.766418,560.225403 894.029114,560.646423 
	C892.207458,560.808228 890.399658,561.151672 888.593628,561.459778 
	C843.771729,569.106079 798.951599,576.763489 754.128906,584.405396 
	C747.255981,585.577209 745.102051,588.012146 745.088989,595.170532 
	C745.068848,606.166748 745.113770,617.163635 745.221558,628.159302 
	C745.296936,635.842407 747.872742,637.860657 755.589172,636.539124 
	C766.752991,634.627075 777.909912,632.672852 789.086182,630.836304 
	C796.017456,629.697266 798.628662,631.950928 798.877563,639.045776 
	C798.941895,640.876709 798.925171,642.710876 798.925110,644.543579 
	C798.924316,691.528381 798.920776,738.513184 798.917969,786.496826 
M240.598694,704.426880 
	C240.591324,705.593262 240.561584,706.760071 240.580200,707.926025 
	C240.704208,715.692200 243.530685,718.192688 251.134018,717.238525 
	C252.785477,717.031311 254.425354,716.730957 256.069702,716.468201 
	C265.937378,714.891296 275.786530,713.184143 285.679108,711.783142 
	C291.558228,710.950562 293.986664,713.234558 294.229248,719.196594 
	C294.317261,721.359131 294.278778,723.527161 294.284851,725.692688 
	C294.426971,776.501404 294.552094,827.310120 294.721863,878.118713 
	C294.752686,887.337280 297.196838,889.384705 306.225098,887.934509 
	C315.597015,886.429199 324.959869,884.865723 334.317657,883.274719 
	C344.571625,881.531311 345.968109,879.871765 345.955017,869.567200 
	C345.888794,817.425598 345.816071,765.284058 345.740265,713.142456 
	C345.727600,704.435181 347.733124,702.038879 356.445496,700.578979 
	C366.791962,698.845215 377.149658,697.178711 387.494751,695.436951 
	C395.244995,694.132019 397.962372,691.127441 398.009460,683.424866 
	C398.075623,672.597473 398.025208,661.767944 397.879822,650.941284 
	C397.775055,643.138000 395.252075,641.284363 387.502075,642.577026 
	C342.168060,650.138672 296.828979,657.670166 251.483002,665.159668 
	C243.720657,666.441772 240.731750,669.611755 240.653275,677.461060 
	C240.566681,686.122742 240.618118,694.785767 240.598694,704.426880 
M352.439423,614.138611 
	C359.919617,612.766479 362.190033,610.206787 362.381531,602.867065 
	C362.429321,601.035645 362.383362,599.201843 362.382050,597.369141 
	C362.345612,546.718994 362.303894,496.068787 362.278778,445.418610 
	C362.274780,437.300354 364.646667,434.214630 372.634857,432.718506 
	C382.291077,430.909973 392.008972,429.431396 401.698364,427.799255 
	C409.906006,426.416718 412.582611,423.458466 412.678345,415.085938 
	C412.786926,405.590790 412.651154,396.092834 412.621552,386.596100 
	C412.589966,376.454895 410.303619,374.519104 400.294769,376.165314 
	C399.637634,376.273407 398.987488,376.423584 398.330536,376.533051 
	C354.957886,383.757172 311.591278,391.018005 268.206268,398.167145 
	C259.926605,399.531494 256.933319,402.534576 256.864807,411.061859 
	C256.781799,421.390564 256.861176,431.722046 257.003815,442.050476 
	C257.103119,449.239044 260.482697,451.818756 267.677887,450.594818 
	C277.037445,449.002655 286.401978,447.436890 295.777710,445.943542 
	C308.741119,443.878784 309.764709,444.690918 309.784698,457.635010 
	C309.863586,508.784912 309.872223,559.934937 309.939850,611.084900 
	C309.950165,618.869141 312.413422,620.883423 320.073334,619.599731 
	C330.585999,617.837830 341.094055,616.048218 352.439423,614.138611 
M917.979553,564.003418 
	C921.310669,610.995483 924.616028,657.989441 928.008728,704.977051 
	C928.391418,710.277222 931.470032,712.533142 936.893005,711.830505 
	C940.518738,711.360779 944.088257,710.435303 947.718018,710.021667 
	C957.240234,708.936523 959.262268,706.980713 960.320312,697.294434 
	C960.500977,695.639832 960.640503,693.980530 960.780212,692.321838 
	C963.407349,661.136292 966.052490,629.952209 968.646301,598.763916 
	C969.681152,586.321472 970.773010,573.879761 971.517639,561.418518 
	C972.078674,552.029602 967.765198,548.319885 958.905090,549.827332 
	C948.240784,551.641724 937.575134,553.457336 926.881836,555.087219 
	C922.006104,555.830444 918.925842,558.180420 917.979553,564.003418 
M915.111145,769.042542 
	C918.988281,789.268372 937.046448,797.961853 955.148987,788.189819 
	C966.675232,781.967834 972.615234,772.082397 972.898804,759.046814 
	C973.136780,748.109619 969.034424,739.065308 959.183960,733.672180 
	C949.566406,728.406616 939.775269,729.566528 930.763062,735.286987 
	C918.811523,742.873108 914.277222,754.324036 915.111145,769.042542 
z"/>
<path fill="#F2BF5A" opacity="1.000000" stroke="none" 
	d="
M771.714905,543.290955 
	C771.069336,543.438965 770.423828,543.586975 769.463257,543.422791 
	C772.787903,539.358093 776.434082,535.611877 780.065674,531.851501 
	C784.056824,527.718811 788.034546,523.573120 792.018127,519.433105 
	C812.167480,506.757507 829.296570,490.945251 841.791321,470.541138 
	C853.975647,450.643921 861.151062,429.096527 863.207581,405.712830 
	C864.493103,391.095093 862.942993,376.815125 860.537720,362.525757 
	C860.090881,359.870972 860.443726,358.743896 863.255676,357.916077 
	C904.130981,345.882690 944.963074,333.702759 985.817017,321.596832 
	C988.356812,320.844269 990.992554,320.415436 994.027832,319.911377 
	C987.539062,329.320343 980.699585,338.725067 973.657532,347.975525 
	C936.154907,397.238831 898.601013,446.463074 861.070190,495.704895 
	C860.469421,496.493134 859.936279,497.332886 859.060608,498.597931 
	C866.987061,506.780365 874.910156,514.959351 883.728027,524.062073 
	C848.804688,530.005676 814.998230,535.759216 780.480347,541.432861 
	C779.178955,541.619141 778.588928,541.885193 777.998962,542.151306 
	C776.887573,542.368347 775.776123,542.585388 774.191528,542.639648 
	C773.050476,542.748230 772.382690,543.019592 771.714905,543.290955 
z"/>
<path fill="#090707" opacity="1.000000" stroke="none" 
	d="
M679.154175,917.577515 
	C674.948669,908.684692 670.689819,899.816467 666.567993,890.885010 
	C665.207275,887.936401 664.200195,884.824463 663.004944,881.397705 
	C667.399170,877.307617 671.819885,873.607056 676.540527,870.170654 
	C680.124023,877.128174 683.341064,883.855286 686.709229,890.505859 
	C690.357483,897.709656 694.146729,904.841980 697.891663,912.397217 
	C699.942383,917.071533 701.912354,921.385864 704.025085,925.629028 
	C706.861267,931.325073 709.807739,936.966248 712.706848,942.630981 
	C713.088501,942.548340 713.470215,942.465698 713.851929,942.383057 
	C715.563354,931.260071 717.274780,920.137085 719.138306,908.636536 
	C720.918335,898.850586 722.546387,889.442200 724.289307,879.370300 
	C728.417358,881.232483 731.722473,882.683899 734.994629,884.206299 
	C752.003662,892.119934 769.004272,900.051514 786.337891,908.115845 
	C813.342346,920.585999 839.987854,932.980347 866.702637,945.223328 
	C881.467590,951.989807 896.348694,958.502747 911.396118,965.362915 
	C914.594055,967.161011 917.573181,968.726196 921.680542,970.883972 
	C920.566589,967.730896 919.994080,965.885193 919.271790,964.100159 
	C911.310547,944.425293 903.382202,924.736694 895.294922,905.113647 
	C893.878357,901.676636 891.767517,898.525696 890.063354,894.843445 
	C883.998230,879.177917 877.847046,863.911560 871.695862,848.645203 
	C876.502625,844.981995 881.309387,841.318787 886.607300,837.785522 
	C888.007263,840.048523 888.964539,842.162415 889.817200,844.317688 
	C896.938049,862.316956 904.039612,880.323914 911.146973,898.328552 
	C925.036926,932.722351 938.926880,967.116211 952.816772,1001.510010 
	C952.473572,1001.963379 952.130310,1002.416748 951.787109,1002.870117 
	C880.293945,970.192383 808.800842,937.514648 736.683777,904.551697 
	C731.586670,934.563599 726.495422,964.541382 720.953003,994.793335 
	C719.383850,993.479431 718.053467,991.999695 717.179993,990.286926 
	C705.701294,967.780945 694.307617,945.231628 682.818970,922.730713 
	C681.870667,920.873413 680.388367,919.288818 679.154175,917.577515 
z"/>
<path fill="#F3C05B" opacity="1.000000" stroke="none" 
	d="
M293.990173,225.781662 
	C312.572388,235.129623 331.096924,244.594376 349.749054,253.800659 
	C386.033112,271.709625 422.390015,289.470978 458.712219,307.302643 
	C461.646606,308.743256 464.546509,310.254120 468.092590,312.051788 
	C466.533569,313.348175 465.769684,314.139404 464.866272,314.709534 
	C458.541687,318.700745 452.279877,322.807526 445.782318,326.497650 
	C444.071472,327.469238 441.013367,328.081085 439.573273,327.208618 
	C423.319458,317.361328 406.125854,317.894348 388.313629,321.337494 
	C370.691284,324.743988 352.917908,327.369202 334.652008,329.918121 
	C325.327332,306.854218 316.557068,284.210968 307.797333,261.563660 
	C303.185425,249.639999 298.591949,237.709229 293.990173,225.781662 
z"/>
<path fill="#0B090A" opacity="1.000000" stroke="none" 
	d="
M293.778687,225.515060 
	C298.591949,237.709229 303.185425,249.639999 307.797333,261.563660 
	C316.557068,284.210968 325.327332,306.854218 334.227844,329.883423 
	C329.318909,331.295074 324.305298,332.613861 319.209991,333.137604 
	C317.991547,333.262817 315.858398,330.990845 315.231781,329.395081 
	C306.101044,306.142639 297.199432,282.800415 288.152710,259.514740 
	C278.563324,234.832321 268.877258,210.187439 259.237122,185.524689 
	C258.831238,184.486298 258.462738,183.433258 257.714325,181.404190 
	C346.371429,219.767227 434.170288,257.758911 523.155518,296.263916 
	C513.392944,298.502533 505.206604,300.647247 496.900360,302.112274 
	C494.577179,302.522034 491.773529,301.223877 489.405090,300.208221 
	C453.289917,284.720947 417.214203,269.141693 381.121399,253.602173 
	C352.524414,241.289932 323.918335,228.998901 295.309906,216.713333 
	C293.556091,215.960190 291.745972,215.338089 288.798248,214.209396 
	C290.722534,218.663696 292.144897,221.956070 293.778687,225.515060 
z"/>
<path fill="#88603B" opacity="1.000000" stroke="none" 
	d="
M697.874512,912.005432 
	C694.146729,904.841980 690.357483,897.709656 686.709229,890.505859 
	C683.341064,883.855286 680.124023,877.128174 676.862671,870.044617 
	C679.435425,866.042664 681.985962,862.430908 684.631348,858.684814 
	C685.439941,859.079895 686.119202,859.242249 686.567261,859.655334 
	C702.673523,874.505920 721.263794,878.838318 742.541382,873.772156 
	C753.368103,871.194275 764.583130,870.265076 775.439087,867.786682 
	C785.081055,865.585266 794.596863,864.024414 804.555969,863.298706 
	C820.586182,862.130676 836.502502,858.749451 852.314209,855.549011 
	C858.735291,854.249390 864.756226,850.973083 871.327576,848.620728 
	C877.847046,863.911560 883.998230,879.177917 889.663452,894.914368 
	C885.180176,894.298462 881.182800,893.212402 876.893188,891.840576 
	C874.970276,891.421204 873.280884,890.941040 871.717590,891.205505 
	C844.475647,895.814880 817.243713,900.484375 790.034607,905.282837 
	C788.579285,905.539551 787.344971,907.049988 786.007812,907.976868 
	C769.004272,900.051514 752.003662,892.119934 734.994629,884.206299 
	C731.722473,882.683899 728.417358,881.232483 724.289307,879.370300 
	C722.546387,889.442200 720.918335,898.850586 718.699951,908.630005 
	C711.364624,910.002502 704.619568,911.003967 697.874512,912.005432 
z"/>
<path fill="#F2C05D" opacity="1.000000" stroke="none" 
	d="
M617.390015,296.456512 
	C621.651794,287.190704 626.177795,277.801666 630.941528,268.534882 
	C643.231445,244.627640 655.626465,220.774460 668.243408,196.655273 
	C669.273743,206.665115 670.182922,216.911179 670.772827,227.175568 
	C671.621094,241.936356 672.157898,256.715057 673.007385,271.475800 
	C673.221436,275.195343 672.167419,276.742096 668.221863,277.192139 
	C649.806213,279.292786 632.302429,284.005524 617.390015,296.456512 
z"/>
<path fill="#897E7E" opacity="1.000000" stroke="none" 
	d="
M911.482910,898.095398 
	C904.039612,880.323914 896.938049,862.316956 889.817200,844.317688 
	C888.964539,842.162415 888.007263,840.048523 886.883728,837.568604 
	C888.159607,833.750610 889.916809,833.727417 893.095886,835.791260 
	C897.622498,838.729858 902.701965,840.816711 907.770386,843.530945 
	C911.488403,853.194153 914.910400,862.620911 918.494385,871.985657 
	C921.968140,881.062317 925.608521,890.075256 929.143005,899.505737 
	C925.084961,899.304810 921.065735,898.666382 917.031372,898.146240 
	C915.310242,897.924377 913.557373,897.949402 911.482910,898.095398 
z"/>
<path fill="#8B6640" opacity="1.000000" stroke="none" 
	d="
M791.675781,519.594055 
	C788.034546,523.573120 784.056824,527.718811 780.065674,531.851501 
	C776.434082,535.611877 772.787903,539.358093 769.132446,543.447388 
	C759.662598,545.382019 750.208496,546.979797 739.941345,548.715027 
	C739.941345,545.664062 739.941345,543.738220 740.062927,541.378906 
	C751.831238,536.731140 763.576050,532.763855 775.082886,528.197083 
	C780.727478,525.956848 785.930603,522.604187 791.675781,519.594055 
z"/>
<path fill="#6F5399" opacity="1.000000" stroke="none" 
	d="
M678.867737,917.822388 
	C680.388367,919.288818 681.870667,920.873413 682.818970,922.730713 
	C694.307617,945.231628 705.701294,967.780945 717.179993,990.286926 
	C718.053467,991.999695 719.383850,993.479431 720.852417,995.189514 
	C719.604431,1002.004883 717.889771,1008.673950 716.477539,1015.406433 
	C716.052551,1017.432556 716.468811,1019.635071 716.661499,1022.129272 
	C716.546326,1022.603882 716.269348,1022.705994 715.559631,1022.896729 
	C714.213867,1019.557556 713.804016,1015.889832 712.302979,1012.742371 
	C704.721497,996.845581 696.880737,981.072021 689.082458,965.279114 
	C682.975525,952.911682 676.889771,940.532043 670.593994,928.260681 
	C668.793579,924.751465 668.525635,922.573669 673.017456,921.328247 
	C675.019592,920.773132 676.735474,919.185974 678.867737,917.822388 
z"/>
<path fill="#FAFAFA" opacity="1.000000" stroke="none" 
	d="
M500.945068,358.875000 
	C523.891235,350.728149 546.918945,348.518097 570.019470,355.530426 
	C601.761902,365.166077 620.880249,387.511749 629.526733,418.838165 
	C647.889587,485.366943 613.445374,561.694824 541.589172,584.166382 
	C515.314575,592.383179 489.149048,591.399658 464.619537,577.588684 
	C438.742676,563.019104 423.939575,539.921509 419.729431,511.236908 
	C411.723480,456.690247 428.052979,410.423157 471.561340,375.363495 
	C480.089264,368.491608 490.849213,364.389709 500.945068,358.875000 
M470.990631,489.357239 
	C471.391571,491.652191 471.721985,493.962097 472.204163,496.239868 
	C479.026367,528.468628 508.008606,544.583862 538.206482,532.841553 
	C547.513123,529.222717 555.541504,523.523376 562.075867,516.006287 
	C579.457031,496.011078 584.182373,472.507782 580.291565,446.920258 
	C577.710938,429.948883 569.338806,416.583191 553.693176,408.759491 
	C534.326599,399.075165 510.143768,403.753418 493.463074,420.263702 
	C474.415192,439.117004 468.591370,462.479370 470.990631,489.357239 
z"/>
<path fill="#FAF9FA" opacity="1.000000" stroke="none" 
	d="
M443.522980,866.532959 
	C436.685120,867.695618 430.269196,868.720947 423.872406,869.854065 
	C416.311096,871.193237 413.378326,868.992859 413.365479,861.507812 
	C413.243561,790.344971 413.152893,719.182190 413.083282,648.019348 
	C413.076416,641.008484 415.385986,638.422668 422.277802,637.313721 
	C433.133148,635.567078 443.991211,633.837036 454.846313,632.088745 
	C462.303223,630.887756 464.138397,632.381348 464.170715,640.105103 
	C464.265564,662.770325 464.290588,685.435852 464.333282,708.101257 
	C464.351929,718.000671 467.026062,720.387878 476.792664,718.851318 
	C488.476501,717.013062 500.152618,715.115723 511.802032,713.072815 
	C520.155029,711.607910 522.568298,708.672180 522.563538,700.219971 
	C522.550659,677.554565 522.456238,654.889221 522.397217,632.223816 
	C522.373596,623.161133 524.235352,621.174622 533.029541,619.819336 
	C543.402344,618.220947 553.740112,616.388184 564.075134,614.555542 
	C571.217896,613.288818 573.687988,615.178406 573.703491,622.483337 
	C573.854370,693.646301 573.982239,764.809326 574.090393,835.972290 
	C574.102173,843.731445 572.030579,846.030640 564.467957,847.254639 
	C553.940552,848.958557 543.423096,850.723389 532.897888,852.440613 
	C525.278992,853.683594 522.684509,851.539246 522.654419,843.849060 
	C522.562988,820.517212 522.523132,797.185120 522.447693,773.853149 
	C522.417908,764.650330 520.000366,762.472107 510.902893,763.917969 
	C498.726898,765.853027 486.571075,767.925659 474.434998,770.097900 
	C466.713135,771.480103 464.256531,774.635498 464.291382,782.395813 
	C464.393158,805.060730 464.492950,827.725708 464.581940,850.390625 
	C464.627075,861.890137 463.196808,863.543945 451.859161,865.239258 
	C449.222839,865.633484 446.588562,866.041626 443.522980,866.532959 
z"/>
<path fill="#FAF9FA" opacity="1.000000" stroke="none" 
	d="
M616.570984,728.560547 
	C627.628235,688.883240 638.617920,649.607239 649.432495,610.283081 
	C651.257568,603.646667 655.017700,600.360596 661.928711,599.452637 
	C674.634094,597.783325 687.265808,595.526855 699.899780,593.349976 
	C708.359314,591.892395 710.933655,593.192261 713.592102,601.570984 
	C725.725952,639.813293 737.747375,678.091309 749.869995,716.337219 
	C758.370544,743.155823 766.969910,769.943054 775.520691,796.745728 
	C775.975952,798.172791 776.485657,799.591858 776.807800,801.050476 
	C778.272583,807.683838 775.544678,811.808044 768.901978,812.909180 
	C757.566833,814.788269 746.222412,816.611572 734.877747,818.432617 
	C728.719421,819.421143 726.394287,818.021179 724.475098,811.970154 
	C722.160339,804.671997 719.894836,797.356018 717.762878,790.002869 
	C716.414917,785.354065 713.410950,783.419495 708.779480,784.161316 
	C690.529724,787.084595 672.286621,790.051819 654.058472,793.106628 
	C649.492188,793.871887 646.745361,796.861877 645.598389,801.288757 
	C643.594299,809.023743 641.455872,816.730713 639.721008,824.526733 
	C638.023743,832.153870 633.819092,836.174561 625.815552,837.128357 
	C615.910217,838.308777 606.110840,840.395081 596.277283,842.154968 
	C588.325256,843.578186 585.403564,840.712219 587.558533,832.870789 
	C595.984131,802.212830 604.582214,771.602356 613.114136,740.973633 
	C614.230469,736.966003 615.334778,732.955017 616.570984,728.560547 
M668.686462,743.626709 
	C676.895386,742.337097 685.111145,741.089050 693.311279,739.746094 
	C701.251770,738.445618 703.802002,734.560364 701.561035,726.699707 
	C696.914978,710.402893 692.198975,694.123779 687.217224,677.927917 
	C686.552673,675.767456 684.175720,674.133728 682.591858,672.256042 
	C680.837952,674.222229 678.112610,675.919800 677.483154,678.196838 
	C672.259644,697.092468 667.375977,716.082886 662.501221,735.073303 
	C661.177185,740.231506 662.586548,742.235657 668.686462,743.626709 
z"/>
<path fill="#FAF9FA" opacity="1.000000" stroke="none" 
	d="
M652.699951,339.969177 
	C655.683350,338.027435 658.294189,335.476746 661.259460,334.959930 
	C682.254700,331.300903 703.289429,327.832031 724.376465,324.745972 
	C746.704834,321.478241 767.669250,324.800873 785.388672,339.974274 
	C802.116638,354.298584 807.472046,373.544067 807.526611,394.637817 
	C807.645081,440.436768 779.650391,473.587799 733.365723,482.693451 
	C726.673340,484.010040 719.878174,484.795410 713.153992,485.961456 
	C705.446167,487.298157 702.617188,490.622986 702.599976,498.550934 
	C702.565369,514.541382 702.674927,530.532166 702.694031,546.522827 
	C702.704712,555.405823 700.505615,557.941711 691.598389,559.376648 
	C681.406311,561.018616 671.203552,562.595093 661.014465,564.255371 
	C653.505615,565.478943 651.087463,563.397949 651.085144,555.436157 
	C651.070435,504.465240 651.069763,453.494293 651.068604,402.523376 
	C651.068176,384.533691 651.020081,366.543549 651.147766,348.554749 
	C651.167297,345.800659 652.022705,343.052551 652.699951,339.969177 
M734.867249,433.614624 
	C751.366638,426.393829 759.573303,410.401520 755.785828,392.850830 
	C753.010254,379.989136 742.630554,372.158264 729.557434,373.440857 
	C723.270813,374.057617 717.020569,375.166931 710.801392,376.311707 
	C705.433228,377.299866 702.540100,380.572754 702.513916,386.003326 
	C702.440857,401.157501 702.520935,416.313934 702.721436,431.467072 
	C702.784912,436.260315 705.430359,438.743286 710.065002,438.092621 
	C718.125488,436.960999 726.114014,435.316895 734.867249,433.614624 
z"/>
<path fill="#FAFAFA" opacity="1.000000" stroke="none" 
	d="
M798.917847,785.997437 
	C798.920776,738.513184 798.924316,691.528381 798.925110,644.543579 
	C798.925171,642.710876 798.941895,640.876709 798.877563,639.045776 
	C798.628662,631.950928 796.017456,629.697266 789.086182,630.836304 
	C777.909912,632.672852 766.752991,634.627075 755.589172,636.539124 
	C747.872742,637.860657 745.296936,635.842407 745.221558,628.159302 
	C745.113770,617.163635 745.068848,606.166748 745.088989,595.170532 
	C745.102051,588.012146 747.255981,585.577209 754.128906,584.405396 
	C798.951599,576.763489 843.771729,569.106079 888.593628,561.459778 
	C890.399658,561.151672 892.207458,560.808228 894.029114,560.646423 
	C898.766418,560.225403 901.983887,562.565674 902.146057,567.316040 
	C902.543762,578.967834 902.766968,590.634827 902.647461,602.291443 
	C902.583740,608.503113 899.220642,611.975708 892.930237,613.141907 
	C882.778564,615.023926 872.581909,616.661926 862.416504,618.472168 
	C853.409363,620.076172 851.115295,622.892334 851.119568,631.859863 
	C851.143982,683.842896 851.156006,735.825989 851.156616,787.809021 
	C851.156738,797.073486 848.685913,799.829590 839.445374,801.305603 
	C829.247986,802.934509 819.072754,804.702881 808.871704,806.307678 
	C801.390198,807.484558 799.082214,805.494019 798.972961,797.993591 
	C798.917114,794.161926 798.933960,790.329102 798.917847,785.997437 
z"/>
<path fill="#FAF9FA" opacity="1.000000" stroke="none" 
	d="
M240.604065,703.937561 
	C240.618118,694.785767 240.566681,686.122742 240.653275,677.461060 
	C240.731750,669.611755 243.720657,666.441772 251.483002,665.159668 
	C296.828979,657.670166 342.168060,650.138672 387.502075,642.577026 
	C395.252075,641.284363 397.775055,643.138000 397.879822,650.941284 
	C398.025208,661.767944 398.075623,672.597473 398.009460,683.424866 
	C397.962372,691.127441 395.244995,694.132019 387.494751,695.436951 
	C377.149658,697.178711 366.791962,698.845215 356.445496,700.578979 
	C347.733124,702.038879 345.727600,704.435181 345.740265,713.142456 
	C345.816071,765.284058 345.888794,817.425598 345.955017,869.567200 
	C345.968109,879.871765 344.571625,881.531311 334.317657,883.274719 
	C324.959869,884.865723 315.597015,886.429199 306.225098,887.934509 
	C297.196838,889.384705 294.752686,887.337280 294.721863,878.118713 
	C294.552094,827.310120 294.426971,776.501404 294.284851,725.692688 
	C294.278778,723.527161 294.317261,721.359131 294.229248,719.196594 
	C293.986664,713.234558 291.558228,710.950562 285.679108,711.783142 
	C275.786530,713.184143 265.937378,714.891296 256.069702,716.468201 
	C254.425354,716.730957 252.785477,717.031311 251.134018,717.238525 
	C243.530685,718.192688 240.704208,715.692200 240.580200,707.926025 
	C240.561584,706.760071 240.591324,705.593262 240.604065,703.937561 
z"/>
<path fill="#FBFAFA" opacity="1.000000" stroke="none" 
	d="
M352.021729,614.204529 
	C341.094055,616.048218 330.585999,617.837830 320.073334,619.599731 
	C312.413422,620.883423 309.950165,618.869141 309.939850,611.084900 
	C309.872223,559.934937 309.863586,508.784912 309.784698,457.635010 
	C309.764709,444.690918 308.741119,443.878784 295.777710,445.943542 
	C286.401978,447.436890 277.037445,449.002655 267.677887,450.594818 
	C260.482697,451.818756 257.103119,449.239044 257.003815,442.050476 
	C256.861176,431.722046 256.781799,421.390564 256.864807,411.061859 
	C256.933319,402.534576 259.926605,399.531494 268.206268,398.167145 
	C311.591278,391.018005 354.957886,383.757172 398.330536,376.533051 
	C398.987488,376.423584 399.637634,376.273407 400.294769,376.165314 
	C410.303619,374.519104 412.589966,376.454895 412.621552,386.596100 
	C412.651154,396.092834 412.786926,405.590790 412.678345,415.085938 
	C412.582611,423.458466 409.906006,426.416718 401.698364,427.799255 
	C392.008972,429.431396 382.291077,430.909973 372.634857,432.718506 
	C364.646667,434.214630 362.274780,437.300354 362.278778,445.418610 
	C362.303894,496.068787 362.345612,546.718994 362.382050,597.369141 
	C362.383362,599.201843 362.429321,601.035645 362.381531,602.867065 
	C362.190033,610.206787 359.919617,612.766479 352.021729,614.204529 
z"/>
<path fill="#F9F8F9" opacity="1.000000" stroke="none" 
	d="
M918.022949,563.572998 
	C918.925842,558.180420 922.006104,555.830444 926.881836,555.087219 
	C937.575134,553.457336 948.240784,551.641724 958.905090,549.827332 
	C967.765198,548.319885 972.078674,552.029602 971.517639,561.418518 
	C970.773010,573.879761 969.681152,586.321472 968.646301,598.763916 
	C966.052490,629.952209 963.407349,661.136292 960.780212,692.321838 
	C960.640503,693.980530 960.500977,695.639832 960.320312,697.294434 
	C959.262268,706.980713 957.240234,708.936523 947.718018,710.021667 
	C944.088257,710.435303 940.518738,711.360779 936.893005,711.830505 
	C931.470032,712.533142 928.391418,710.277222 928.008728,704.977051 
	C924.616028,657.989441 921.310669,610.995483 918.022949,563.572998 
z"/>
<path fill="#F9F8F9" opacity="1.000000" stroke="none" 
	d="
M915.069763,768.597107 
	C914.277222,754.324036 918.811523,742.873108 930.763062,735.286987 
	C939.775269,729.566528 949.566406,728.406616 959.183960,733.672180 
	C969.034424,739.065308 973.136780,748.109619 972.898804,759.046814 
	C972.615234,772.082397 966.675232,781.967834 955.148987,788.189819 
	C937.046448,797.961853 918.988281,789.268372 915.069763,768.597107 
z"/>
<path fill="#8B6640" opacity="1.000000" stroke="none" 
	d="
M772.005066,543.449768 
	C772.382690,543.019592 773.050476,542.748230 773.853943,542.677673 
	C773.424805,543.121826 772.859985,543.365173 772.005066,543.449768 
z"/>
<path fill="#8B6640" opacity="1.000000" stroke="none" 
	d="
M778.159729,542.329712 
	C778.588928,541.885193 779.178955,541.619141 780.076904,541.516357 
	C779.696716,541.955811 779.008606,542.231995 778.159729,542.329712 
z"/>
<path fill="#F1C05A" opacity="1.000000" stroke="none" 
	d="
M786.337891,908.115845 
	C787.344971,907.049988 788.579285,905.539551 790.034607,905.282837 
	C817.243713,900.484375 844.475647,895.814880 871.717590,891.205505 
	C873.280884,890.941040 874.970276,891.421204 876.941528,892.186157 
	C881.827942,902.630981 886.333862,912.463257 890.929077,922.253601 
	C897.644836,936.561523 904.424866,950.839355 911.177429,965.130005 
	C896.348694,958.502747 881.467590,951.989807 866.702637,945.223328 
	C839.987854,932.980347 813.342346,920.585999 786.337891,908.115845 
z"/>
<path fill="#F5F4F1" opacity="1.000000" stroke="none" 
	d="
M911.396118,965.362915 
	C904.424866,950.839355 897.644836,936.561523 890.929077,922.253601 
	C886.333862,912.463257 881.827942,902.630981 877.233765,892.471924 
	C881.182800,893.212402 885.180176,894.298462 889.577393,895.313599 
	C891.767517,898.525696 893.878357,901.676636 895.294922,905.113647 
	C903.382202,924.736694 911.310547,944.425293 919.271790,964.100159 
	C919.994080,965.885193 920.566589,967.730896 921.680542,970.883972 
	C917.573181,968.726196 914.594055,967.161011 911.396118,965.362915 
z"/>
<path fill="#E9B154" opacity="1.000000" stroke="none" 
	d="
M697.891663,912.397217 
	C704.619568,911.003967 711.364624,910.002502 718.547974,909.007568 
	C717.274780,920.137085 715.563354,931.260071 713.851929,942.383057 
	C713.470215,942.465698 713.088501,942.548340 712.706848,942.630981 
	C709.807739,936.966248 706.861267,931.325073 704.025085,925.629028 
	C701.912354,921.385864 699.942383,917.071533 697.891663,912.397217 
z"/>
<path fill="#060405" opacity="1.000000" stroke="none" 
	d="
M470.949707,488.912292 
	C468.591370,462.479370 474.415192,439.117004 493.463074,420.263702 
	C510.143768,403.753418 534.326599,399.075165 553.693176,408.759491 
	C569.338806,416.583191 577.710938,429.948883 580.291565,446.920258 
	C584.182373,472.507782 579.457031,496.011078 562.075867,516.006287 
	C555.541504,523.523376 547.513123,529.222717 538.206482,532.841553 
	C508.008606,544.583862 479.026367,528.468628 472.204163,496.239868 
	C471.721985,493.962097 471.391571,491.652191 470.949707,488.912292 
z"/>
<path fill="#090809" opacity="1.000000" stroke="none" 
	d="
M668.278870,743.631592 
	C662.586548,742.235657 661.177185,740.231506 662.501221,735.073303 
	C667.375977,716.082886 672.259644,697.092468 677.483154,678.196838 
	C678.112610,675.919800 680.837952,674.222229 682.591858,672.256042 
	C684.175720,674.133728 686.552673,675.767456 687.217224,677.927917 
	C692.198975,694.123779 696.914978,710.402893 701.561035,726.699707 
	C703.802002,734.560364 701.251770,738.445618 693.311279,739.746094 
	C685.111145,741.089050 676.895386,742.337097 668.278870,743.631592 
z"/>
<path fill="#070506" opacity="1.000000" stroke="none" 
	d="
M734.500000,433.751099 
	C726.114014,435.316895 718.125488,436.960999 710.065002,438.092621 
	C705.430359,438.743286 702.784912,436.260315 702.721436,431.467072 
	C702.520935,416.313934 702.440857,401.157501 702.513916,386.003326 
	C702.540100,380.572754 705.433228,377.299866 710.801392,376.311707 
	C717.020569,375.166931 723.270813,374.057617 729.557434,373.440857 
	C742.630554,372.158264 753.010254,379.989136 755.785828,392.850830 
	C759.573303,410.401520 751.366638,426.393829 734.500000,433.751099 
z"/>
</svg>